<svg id="Capa_1" enable-background="new 0 0 512 512" height="512" viewBox="0 0 512 512" width="512" xmlns="http://www.w3.org/2000/svg"><g><g clip-rule="evenodd" fill-rule="evenodd"><path d="m126.248 345.247-39.062 39.032 7.818 31.008 32.713 9.523 39.061-39.032-12.197-34.212z" fill="#fec165"/><path d="m37.368 434.098 14.019 25.57 26.512 14.961 24.923-24.895-14.46-28.098-26.07-12.433z" fill="#fec165"/><path d="m5.096 435.538c-6.789 8.083-6.789 20.016 0 28.128.411.5.823.97 1.293 1.411l40.531 40.531c1.087 1.087 2.234 2.028 3.439 2.822 7.289 4.761 16.841 4.761 24.101 0 1.234-.794 2.381-1.734 3.439-2.822 8.524-8.494 8.524-22.455 0-30.979l-40.531-40.531c-8.524-8.524-22.455-8.524-30.979 0-.441.47-.882.94-1.293 1.44z" fill="#fe8607"/><path d="m77.391 388.347h35.227v57.319h-35.227z" fill="#f8f2f0" transform="matrix(.707 -.708 .708 .707 -267.176 189.53)"/><path d="m126.248 345.247 40.531 40.531 1.411 1.411c10.405 10.405 27.452 10.405 37.856 0l14.901-14.901-32.184-58.372-49.025-22.837-14.931 14.901c-10.405 10.405-10.405 27.422 0 37.827z" fill="#fe8607"/><path d="m213.717 184.006-86.411 86.411c-2.263 2.263-2.263 5.966 0 8.23l12.433 12.433 81.209 81.209 12.433 12.433c2.263 2.263 5.966 2.263 8.23 0l86.411-86.411z" fill="#f8f2f0"/><path d="m66.935 468.456c1.617 7.083-.353 14.843-5.849 20.339-1.058 1.087-2.234 1.999-3.439 2.822-7.289 4.761-16.812 4.761-24.101 0-1.205-.823-2.381-1.734-3.439-2.822l16.812 16.812c1.087 1.087 2.234 2.028 3.439 2.822 7.289 4.761 16.841 4.761 24.101 0 1.234-.794 2.381-1.734 3.439-2.822 8.524-8.494 8.524-22.455 0-30.979l-16.812-16.812c3.028 3.028 4.968 6.731 5.849 10.64z" fill="#f46700"/><path d="m86.011 432.893-24.924 24.924 16.812 16.812 24.923-24.895z" fill="#fea610"/><path d="m101.676 417.227-10.287 10.287-5.378 5.379 16.811 16.841 24.895-24.924-16.812-16.812z" fill="#eee1dc"/><path d="m149.966 368.937-39.061 39.061 16.812 16.812 39.061-39.032-15.401-15.401z" fill="#fea610"/><path d="m151.377 370.377 15.401 15.401 1.411 1.411c10.405 10.405 27.452 10.405 37.856 0l14.901-14.901-4.409-4.379-12.403-12.433-14.931 14.901c-6.848 6.848-16.606 9.2-25.424 6.995-4.554-1.117-8.845-3.468-12.402-6.995z" fill="#f46700"/><path d="m224.797 367.908c-1.47 1.44-3.527 1.969-5.408 1.558-1.058-.235-2.028-.764-2.851-1.558l4.409 4.379 12.433 12.433c2.263 2.263 5.966 2.263 8.23 0l86.411-86.411-16.812-16.812-16.841 16.812z" fill="#eee1dc"/><path d="m213.717 184.006v102.606c0 6.76 4.908 11.698 11.698 11.698h102.605l177.231-177.231c8.994-9.023 8.994-23.748 0-32.742l-81.561-81.592c-9.023-8.994-23.748-8.994-32.742 0z" fill="#fec165"/><path d="m488.439 104.266-194.072 194.043h33.653l177.231-177.231c8.994-9.023 8.994-23.748 0-32.742l-16.812-16.812c8.994 8.994 8.994 23.719 0 32.742z" fill="#fea610"/><path d="m471.922 408.024c-6.294 38.065-42.237 63.809-80.272 57.525-12.651-2.091-23.931-7.458-33.141-15.092v-9.733l-11.836-2.836c-10.693-14.618-15.731-33.347-12.537-52.611 6.284-38.065 42.237-63.809 80.292-57.515 4.914.814 9.612 2.112 14.072 3.863l6.877 8.141 8.144-.023c21.025 14.99 32.893 41.105 28.401 68.281z" fill="#fb2a39"/><path d="m454.756 396.418c-6.29 38.033-42.236 63.78-80.268 57.49-5.036-.821-9.855-2.178-14.406-3.982l-1.573.533c9.203 7.639 20.484 12.983 33.143 15.088 38.033 6.29 73.978-19.457 80.268-57.519 4.488-27.169-7.365-53.293-28.401-68.276-2.381-1.696-6.097-.448-6.126-.007 2.526 2.611 3.454 2.098 5.544 5.062 10.19 14.459 14.941 32.782 11.819 51.611z" fill="#dd003a"/></g><g><path d="m443.52 339.743c-3.348 40.62-40.105 95.92-85.011 110.714-4.461-3.688-8.437-7.922-11.837-12.568 1.205-.422 2.39-.773 3.379-1.03 18.615-4.935 38.271-19.893 53.909-41.032 14.866-20.099 23.962-42.856 24.343-60.884.021-.968.072-2.122.196-3.317 5.399 2.101 10.427 4.841 15.021 8.117z" fill="#f8f2f0"/></g></g></svg>