<svg height="512pt" viewBox="-16 0 512 512" width="512pt" xmlns="http://www.w3.org/2000/svg"><path d="m390 407c0-41.421875-33.578125-75-75-75h-240c-41.421875 0-75 33.578125-75 75v30l90 75h210l90-75zm0 0" fill="#e7e7f2"/><path d="m315 332c41.421875 0 75 33.578125 75 75v30l-90 75h-105v-180zm0 0" fill="#cecee6"/><path d="m300 75v15c0 8.402344-6.597656 15-15 15h-180c-8.402344 0-15-6.597656-15-15v-15c0-41.398438 33.601562-75 75-75h60c41.398438 0 75 33.601562 75 75zm0 0" fill="#e7e7f2"/><path d="m300 75v15c0 8.402344-6.597656 15-15 15h-90v-105h30c41.398438 0 75 33.601562 75 75zm0 0" fill="#cecee6"/><path d="m300 105v120c0 40.800781-23.699219 77.699219-60 94.800781v26.46875c0 24.730469-19.628906 45.378907-44.351562 45.730469h-.648438c-24.910156-.011719-45-20.089844-45-45v-27.199219c-36.300781-17.101562-60-54-60-94.800781v-120zm0 0" fill="#ffbfab"/><path d="m300 105v120c0 40.800781-23.699219 77.699219-60 94.800781v26.46875c0 24.730469-19.628906 45.378907-44.351562 45.730469h-.648438v-287zm0 0" fill="#ffa78f"/><path d="m90 90v15c0 41.398438 33.601562 75 75 75h60c41.398438 0 75-33.601562 75-75v-15zm0 0" fill="#4bb9ec"/><path d="m300 90v15c0 41.398438-33.601562 75-75 75h-30v-90zm0 0" fill="#0095ff"/><path d="m240 225c0 24.902344-20.097656 45-45 45s-45-20.097656-45-45h30c0 8.402344 6.597656 15 15 15s15-6.597656 15-15zm0 0" fill="#ffa78f"/><path d="m240 225c0 24.902344-20.097656 45-45 45v-30c8.402344 0 15-6.597656 15-15zm0 0" fill="#f89580"/><path d="m0 437h90v75h-90zm0 0" fill="#ffbfab"/><path d="m300 437v75h105l-15-75zm0 0" fill="#ffa78f"/><path d="m360 332v135c0 24.808594 20.191406 45 45 45s45-20.191406 45-45v-135zm0 0" fill="#575f64"/><path d="m450 332v135c0 24.808594-20.191406 45-45 45v-180zm0 0" fill="#474f54"/><path d="m435 0h-60c-24.808594 0-45 20.191406-45 45v272c0 24.808594 20.191406 45 45 45h60c24.808594 0 45-20.191406 45-45v-272c0-24.808594-20.191406-45-45-45zm0 0" fill="#ffda2d"/><path d="m480 45v272c0 24.808594-20.191406 45-45 45h-30v-362h30c24.808594 0 45 20.191406 45 45zm0 0" fill="#fdbf00"/></svg>